<svg width="81" height="34" viewBox="0 0 81 34" fill="none" xmlns="http://www.w3.org/2000/svg">
    <path
        d="M18.2119 0C16.3721 0 14.8788 1.49222 14.8788 3.33084V7.40825V16.6813C14.8788 19.7457 12.3724 22.2505 9.27928 22.2505C6.18619 22.2505 3.70638 19.799 3.70638 16.708C3.70638 13.6436 6.18619 11.1388 9.27928 11.1388H12.639C12.8523 11.1388 13.0123 10.9789 13.0123 10.7657V7.80795C13.0123 7.59478 12.8523 7.4349 12.639 7.4349H9.27928C4.15968 7.4349 0 11.5918 0 16.708C0 21.8241 4.15968 25.981 9.27928 25.981C14.3989 25.981 18.5586 21.8241 18.5586 16.708V7.4349V0.373054C18.5852 0.15988 18.4252 0 18.2119 0Z"
        fill="#1B2666" />
    <path
        d="M28.6385 7.51953C25.0825 7.51953 22.0923 9.70952 20.88 12.7808C20.7992 12.9144 20.7453 13.0746 20.6915 13.2349C20.2604 14.3566 20.0449 15.5851 20.0449 16.7869C20.0449 17.8552 20.2335 18.8968 20.5568 19.8849C21.5535 23.4637 24.867 26.081 28.8001 26.081H28.9887C32.4908 26.081 35.5349 23.9978 36.828 20.9799C36.9357 20.7396 36.7471 20.4725 36.4778 20.4725H33.1642C33.0296 20.4725 32.9218 20.5526 32.841 20.6327C31.9789 21.7811 30.605 22.5289 29.0695 22.5289H28.5038C26.2678 22.5289 24.3821 20.9532 23.9241 18.8968C23.9241 18.8701 23.8972 18.8434 23.8972 18.8167C23.8972 18.603 24.0588 18.4428 24.2744 18.4428H36.5586C36.7741 18.4428 36.9357 18.2825 36.9357 18.0689V16.0391V15.959V15.7186C36.9627 11.2051 33.2181 7.51953 28.6385 7.51953ZM32.7332 15.1311H24.3821C24.1666 15.1311 24.005 14.9708 24.005 14.7572C24.005 14.7305 24.005 14.677 24.0319 14.677C24.4899 12.5939 26.3487 11.0449 28.5846 11.0449C30.8205 11.0449 32.6793 12.6206 33.1373 14.677C33.1373 14.7038 33.1642 14.7305 33.1642 14.7572C33.1104 14.9708 32.9487 15.1311 32.7332 15.1311Z"
        fill="#1B2666" />
    <path
        d="M45.8701 14.9441C45.4434 14.8373 43.5499 14.4367 42.4831 13.7423C42.0297 13.4485 41.7363 13.0746 41.7363 12.6473C41.7363 11.766 42.9098 11.0716 44.3499 11.0716C45.5501 11.0716 46.5635 11.579 46.8569 12.22C46.9369 12.4069 47.0969 12.5405 47.2836 12.5405H50.2705C50.4839 12.5405 50.6439 12.3535 50.6172 12.1666C50.3239 9.54928 47.6303 7.51953 44.3233 7.51953C40.8296 7.51953 38.0026 9.81635 38.0026 12.6206C38.0026 14.9174 39.8962 16.867 42.4831 17.508L45.3634 18.416C46.4835 18.7098 47.3102 19.511 47.3102 20.4191C47.3102 21.5942 45.9768 22.5557 44.3233 22.5557C42.8831 22.5557 41.7097 21.8346 41.4163 20.8464C41.363 20.6594 41.203 20.4992 41.0163 20.4992H38.0293C37.8159 20.4992 37.6559 20.6862 37.6826 20.8731C37.976 23.7842 40.8296 26.081 44.3499 26.081C48.0303 26.081 51.0439 23.5438 51.0439 20.4191C51.0439 17.7751 48.8037 15.5317 45.8701 14.9441Z"
        fill="#1B2666" />
    <path
        d="M62.5696 7.5146H58.8515C58.639 7.5146 58.4797 7.3549 58.4797 7.14197V4.08552C58.4797 3.87259 58.3203 3.71289 58.1079 3.71289H55.1334C54.9209 3.71289 54.7616 3.87259 54.7616 4.08552V7.14197C54.7616 7.3549 54.6022 7.5146 54.3898 7.5146H52.1589C51.9465 7.5146 51.7871 7.67429 51.7871 7.88723V10.6553C51.7871 10.8683 51.9465 11.028 52.1589 11.028H54.3898C54.6022 11.028 54.7616 11.1877 54.7616 11.4006V18.7067C54.7616 19.6915 54.9475 20.6231 55.3193 21.5281C55.6911 22.433 56.2223 23.2315 56.9393 23.9235C57.6298 24.6156 58.4266 25.1745 59.3295 25.5205C60.2325 25.8931 61.1886 26.0795 62.1447 26.0795H62.5522C62.7646 26.0795 62.924 25.9198 62.924 25.7068V22.7524C62.924 22.5395 62.7646 22.3798 62.5522 22.3798H62.1447C61.6401 22.3798 61.162 22.2999 60.7371 22.087C60.2856 21.9007 59.8607 21.6345 59.542 21.2885C59.1967 20.9425 58.9312 20.5166 58.7453 20.0908C58.5593 19.6383 58.4531 19.1592 58.4531 18.6801V11.4006C58.4531 11.1877 58.6125 11.028 58.8249 11.028H62.543C62.7555 11.028 62.9148 10.8683 62.9148 10.6553V7.88723C62.9148 7.6572 62.782 7.5146 62.5696 7.5146Z"
        fill="#1B2666" />
    <path
        d="M76.5828 7.51953H79.6751C79.9417 7.51953 80.0627 7.70648 79.9683 7.94882L74.8233 27.1468C74.3435 28.9712 73.2772 30.5811 71.7843 31.7348C70.2915 32.8885 68.4788 33.5056 66.6127 33.5056H64.0392C63.826 33.5056 63.666 33.3446 63.666 33.13V30.1518C63.666 29.9371 63.826 29.7762 64.0392 29.7762H66.6127C67.679 29.7762 68.7187 29.4274 69.5451 28.7834C70.3981 28.1395 70.9846 27.2541 71.2778 26.2077L71.6777 24.6784C71.7867 24.3177 71.4812 24.3045 71.3312 24.3154H68.3988C68.2388 24.3154 68.0789 24.1812 68.0522 24.0203L63.7603 7.97565C63.6803 7.76101 63.8669 7.51953 64.1069 7.51953H67.1992C67.3591 7.51953 67.4924 7.65368 67.5457 7.81467L71.5444 22.7592C71.5711 22.9202 71.7044 23.0544 71.891 23.0544C72.0509 23.0544 72.2109 22.9202 72.2375 22.7592L76.2362 7.81467C76.2629 7.62685 76.4228 7.51953 76.5828 7.51953Z"
        fill="#1B2666" />
    <path
        d="M9.40341 14.2207C7.96285 14.2207 6.78906 15.3937 6.78906 16.8333C6.78906 18.2729 7.96285 19.4459 9.40341 19.4459C10.844 19.4459 12.0178 18.2729 12.0178 16.8333V14.5939C12.0178 14.3807 11.8577 14.2207 11.6443 14.2207H9.40341Z"
        fill="#FF9E2D" />
</svg>
